<mxfile host="app.diagrams.net" agent="Mozilla/5.0 (X11; Ubuntu; Linux x86_64; rv:133.0) Gecko/20100101 Firefox/133.0" version="26.0.5">
  <diagram id="R2lEEEUBdFMjLlhIrx00" name="Page-1">
    <mxGraphModel dx="2925" dy="626" grid="1" gridSize="10" guides="1" tooltips="1" connect="1" arrows="0" fold="1" page="1" pageScale="1" pageWidth="1920" pageHeight="1200" math="0" shadow="0" extFonts="Permanent Marker^https://fonts.googleapis.com/css?family=Permanent+Marker">
      <root>
        <mxCell id="0" />
        <mxCell id="1" parent="0" />
        <mxCell id="twBmOA31EewbAZxq6B4R-10" value="User" style="swimlane;childLayout=stackLayout;horizontal=1;startSize=50;horizontalStack=0;rounded=1;fontSize=14;fontStyle=0;strokeWidth=2;resizeParent=0;resizeLast=1;shadow=0;dashed=0;align=center;arcSize=4;whiteSpace=wrap;html=1;fillColor=#d5e8d4;strokeColor=#82b366;" vertex="1" parent="1">
          <mxGeometry x="180" y="940" width="120" height="130" as="geometry" />
        </mxCell>
        <mxCell id="twBmOA31EewbAZxq6B4R-11" value="&lt;div&gt;&lt;u&gt;IdU&lt;/u&gt;&lt;/div&gt;&lt;div&gt;Name&lt;/div&gt;&lt;div&gt;Surname&lt;/div&gt;&lt;div&gt;Birth date&lt;/div&gt;" style="align=left;strokeColor=none;fillColor=none;spacingLeft=4;fontSize=12;verticalAlign=top;resizable=0;rotatable=0;part=1;html=1;" vertex="1" parent="twBmOA31EewbAZxq6B4R-10">
          <mxGeometry y="50" width="120" height="80" as="geometry" />
        </mxCell>
        <mxCell id="twBmOA31EewbAZxq6B4R-13" style="edgeStyle=orthogonalEdgeStyle;rounded=0;orthogonalLoop=1;jettySize=auto;html=1;exitX=1;exitY=1;exitDx=0;exitDy=0;entryX=1;entryY=1;entryDx=0;entryDy=0;" edge="1" parent="twBmOA31EewbAZxq6B4R-10" source="twBmOA31EewbAZxq6B4R-10" target="twBmOA31EewbAZxq6B4R-11">
          <mxGeometry relative="1" as="geometry" />
        </mxCell>
        <mxCell id="twBmOA31EewbAZxq6B4R-15" value="Post" style="swimlane;childLayout=stackLayout;horizontal=1;startSize=50;horizontalStack=0;rounded=1;fontSize=14;fontStyle=0;strokeWidth=2;resizeParent=0;resizeLast=1;shadow=0;dashed=0;align=center;arcSize=4;whiteSpace=wrap;html=1;fillColor=#d5e8d4;strokeColor=#82b366;" vertex="1" parent="1">
          <mxGeometry x="620" y="950" width="120" height="130" as="geometry" />
        </mxCell>
        <mxCell id="twBmOA31EewbAZxq6B4R-16" value="&lt;div&gt;&lt;u&gt;IdPost&lt;/u&gt;&lt;/div&gt;&lt;div&gt;Content&lt;/div&gt;&lt;div&gt;Date&lt;/div&gt;&lt;div&gt;Visibility&lt;br&gt;&lt;/div&gt;" style="align=left;strokeColor=none;fillColor=none;spacingLeft=4;fontSize=12;verticalAlign=top;resizable=0;rotatable=0;part=1;html=1;" vertex="1" parent="twBmOA31EewbAZxq6B4R-15">
          <mxGeometry y="50" width="120" height="80" as="geometry" />
        </mxCell>
        <mxCell id="twBmOA31EewbAZxq6B4R-17" style="edgeStyle=orthogonalEdgeStyle;rounded=0;orthogonalLoop=1;jettySize=auto;html=1;exitX=1;exitY=1;exitDx=0;exitDy=0;entryX=1;entryY=1;entryDx=0;entryDy=0;" edge="1" parent="twBmOA31EewbAZxq6B4R-15" source="twBmOA31EewbAZxq6B4R-15" target="twBmOA31EewbAZxq6B4R-16">
          <mxGeometry relative="1" as="geometry" />
        </mxCell>
        <mxCell id="twBmOA31EewbAZxq6B4R-31" style="edgeStyle=orthogonalEdgeStyle;rounded=0;orthogonalLoop=1;jettySize=auto;html=1;exitX=0;exitY=0.5;exitDx=0;exitDy=0;entryX=1;entryY=0.25;entryDx=0;entryDy=0;" edge="1" parent="1" source="twBmOA31EewbAZxq6B4R-29" target="twBmOA31EewbAZxq6B4R-11">
          <mxGeometry relative="1" as="geometry" />
        </mxCell>
        <mxCell id="twBmOA31EewbAZxq6B4R-53" style="edgeStyle=orthogonalEdgeStyle;rounded=0;orthogonalLoop=1;jettySize=auto;html=1;exitX=1;exitY=0.5;exitDx=0;exitDy=0;entryX=-0.001;entryY=0.135;entryDx=0;entryDy=0;entryPerimeter=0;" edge="1" parent="1" source="twBmOA31EewbAZxq6B4R-29" target="twBmOA31EewbAZxq6B4R-16">
          <mxGeometry relative="1" as="geometry">
            <mxPoint x="620" y="1010.2222222222222" as="targetPoint" />
          </mxGeometry>
        </mxCell>
        <mxCell id="twBmOA31EewbAZxq6B4R-29" value="&lt;div&gt;Publishes&lt;/div&gt;" style="rounded=1;arcSize=10;whiteSpace=wrap;html=1;align=center;fillColor=#fff2cc;strokeColor=#d6b656;" vertex="1" parent="1">
          <mxGeometry x="420" y="990" width="100" height="40" as="geometry" />
        </mxCell>
        <mxCell id="twBmOA31EewbAZxq6B4R-34" value="&lt;div&gt;1,1&lt;/div&gt;&lt;div&gt;&lt;br&gt;&lt;/div&gt;" style="text;strokeColor=none;fillColor=none;spacingLeft=4;spacingRight=4;overflow=hidden;rotatable=0;points=[[0,0.5],[1,0.5]];portConstraint=eastwest;fontSize=12;whiteSpace=wrap;html=1;" vertex="1" parent="1">
          <mxGeometry x="590" y="980" width="40" height="30" as="geometry" />
        </mxCell>
        <mxCell id="twBmOA31EewbAZxq6B4R-35" value="&lt;div&gt;0,N&lt;/div&gt;&lt;div&gt;&lt;br&gt;&lt;/div&gt;" style="text;strokeColor=none;fillColor=none;spacingLeft=4;spacingRight=4;overflow=hidden;rotatable=0;points=[[0,0.5],[1,0.5]];portConstraint=eastwest;fontSize=12;whiteSpace=wrap;html=1;" vertex="1" parent="1">
          <mxGeometry x="300" y="980" width="40" height="30" as="geometry" />
        </mxCell>
        <mxCell id="twBmOA31EewbAZxq6B4R-37" value="&lt;div&gt;Follows&lt;/div&gt;" style="rounded=1;arcSize=10;whiteSpace=wrap;html=1;align=center;fillColor=#fff2cc;strokeColor=#d6b656;" vertex="1" parent="1">
          <mxGeometry x="190" y="830" width="100" height="40" as="geometry" />
        </mxCell>
        <mxCell id="twBmOA31EewbAZxq6B4R-44" style="edgeStyle=orthogonalEdgeStyle;rounded=0;orthogonalLoop=1;jettySize=auto;html=1;exitX=0.75;exitY=1;exitDx=0;exitDy=0;entryX=0.706;entryY=-0.017;entryDx=0;entryDy=0;entryPerimeter=0;" edge="1" parent="1" source="twBmOA31EewbAZxq6B4R-37" target="twBmOA31EewbAZxq6B4R-10">
          <mxGeometry relative="1" as="geometry" />
        </mxCell>
        <mxCell id="twBmOA31EewbAZxq6B4R-46" value="&lt;div&gt;0,N&lt;/div&gt;&lt;div&gt;&lt;br&gt;&lt;/div&gt;" style="text;strokeColor=none;fillColor=none;spacingLeft=4;spacingRight=4;overflow=hidden;rotatable=0;points=[[0,0.5],[1,0.5]];portConstraint=eastwest;fontSize=12;whiteSpace=wrap;html=1;" vertex="1" parent="1">
          <mxGeometry x="260" y="910" width="40" height="30" as="geometry" />
        </mxCell>
        <mxCell id="twBmOA31EewbAZxq6B4R-47" value="&lt;div&gt;0,N&lt;/div&gt;&lt;div&gt;&lt;br&gt;&lt;/div&gt;" style="text;strokeColor=none;fillColor=none;spacingLeft=4;spacingRight=4;overflow=hidden;rotatable=0;points=[[0,0.5],[1,0.5]];portConstraint=eastwest;fontSize=12;whiteSpace=wrap;html=1;" vertex="1" parent="1">
          <mxGeometry x="180" y="915" width="40" height="30" as="geometry" />
        </mxCell>
        <mxCell id="twBmOA31EewbAZxq6B4R-57" style="edgeStyle=orthogonalEdgeStyle;rounded=0;orthogonalLoop=1;jettySize=auto;html=1;entryX=1;entryY=0.75;entryDx=0;entryDy=0;" edge="1" parent="1" target="twBmOA31EewbAZxq6B4R-11">
          <mxGeometry relative="1" as="geometry">
            <mxPoint x="427" y="1050" as="sourcePoint" />
          </mxGeometry>
        </mxCell>
        <mxCell id="twBmOA31EewbAZxq6B4R-61" style="edgeStyle=orthogonalEdgeStyle;rounded=0;orthogonalLoop=1;jettySize=auto;html=1;exitX=0.985;exitY=0.344;exitDx=0;exitDy=0;exitPerimeter=0;" edge="1" parent="1" source="twBmOA31EewbAZxq6B4R-401">
          <mxGeometry relative="1" as="geometry">
            <mxPoint x="520" y="1059.9999999999998" as="sourcePoint" />
            <mxPoint x="620" y="1056" as="targetPoint" />
          </mxGeometry>
        </mxCell>
        <mxCell id="twBmOA31EewbAZxq6B4R-62" value="&lt;div&gt;0,N&lt;/div&gt;&lt;div&gt;&lt;br&gt;&lt;/div&gt;" style="text;strokeColor=none;fillColor=none;spacingLeft=4;spacingRight=4;overflow=hidden;rotatable=0;points=[[0,0.5],[1,0.5]];portConstraint=eastwest;fontSize=12;whiteSpace=wrap;html=1;" vertex="1" parent="1">
          <mxGeometry x="590" y="1030" width="40" height="30" as="geometry" />
        </mxCell>
        <mxCell id="twBmOA31EewbAZxq6B4R-63" value="&lt;div&gt;0,N&lt;/div&gt;&lt;div&gt;&lt;br&gt;&lt;/div&gt;" style="text;strokeColor=none;fillColor=none;spacingLeft=4;spacingRight=4;overflow=hidden;rotatable=0;points=[[0,0.5],[1,0.5]];portConstraint=eastwest;fontSize=12;whiteSpace=wrap;html=1;" vertex="1" parent="1">
          <mxGeometry x="300" y="1020" width="40" height="30" as="geometry" />
        </mxCell>
        <mxCell id="twBmOA31EewbAZxq6B4R-94" style="edgeStyle=orthogonalEdgeStyle;rounded=0;orthogonalLoop=1;jettySize=auto;html=1;exitX=0;exitY=0.75;exitDx=0;exitDy=0;entryX=1;entryY=0.25;entryDx=0;entryDy=0;" edge="1" parent="1" source="twBmOA31EewbAZxq6B4R-64" target="twBmOA31EewbAZxq6B4R-10">
          <mxGeometry relative="1" as="geometry">
            <mxPoint x="305" y="970.1428571428571" as="targetPoint" />
          </mxGeometry>
        </mxCell>
        <mxCell id="twBmOA31EewbAZxq6B4R-64" value="Likes" style="rounded=1;arcSize=10;whiteSpace=wrap;html=1;align=center;fillColor=#fff2cc;strokeColor=#d6b656;" vertex="1" parent="1">
          <mxGeometry x="420" y="940" width="100" height="40" as="geometry" />
        </mxCell>
        <mxCell id="twBmOA31EewbAZxq6B4R-67" style="edgeStyle=orthogonalEdgeStyle;rounded=0;orthogonalLoop=1;jettySize=auto;html=1;exitX=1;exitY=0.75;exitDx=0;exitDy=0;entryX=-0.007;entryY=0.169;entryDx=0;entryDy=0;entryPerimeter=0;" edge="1" parent="1" source="twBmOA31EewbAZxq6B4R-64" target="twBmOA31EewbAZxq6B4R-15">
          <mxGeometry relative="1" as="geometry" />
        </mxCell>
        <mxCell id="twBmOA31EewbAZxq6B4R-68" value="&lt;div&gt;0,N&lt;/div&gt;&lt;div&gt;&lt;br&gt;&lt;/div&gt;" style="text;strokeColor=none;fillColor=none;spacingLeft=4;spacingRight=4;overflow=hidden;rotatable=0;points=[[0,0.5],[1,0.5]];portConstraint=eastwest;fontSize=12;whiteSpace=wrap;html=1;" vertex="1" parent="1">
          <mxGeometry x="590" y="945" width="40" height="30" as="geometry" />
        </mxCell>
        <mxCell id="twBmOA31EewbAZxq6B4R-69" value="&lt;div&gt;0,N&lt;/div&gt;&lt;div&gt;&lt;br&gt;&lt;/div&gt;" style="text;strokeColor=none;fillColor=none;spacingLeft=4;spacingRight=4;overflow=hidden;rotatable=0;points=[[0,0.5],[1,0.5]];portConstraint=eastwest;fontSize=12;whiteSpace=wrap;html=1;" vertex="1" parent="1">
          <mxGeometry x="300" y="950" width="40" height="30" as="geometry" />
        </mxCell>
        <mxCell id="twBmOA31EewbAZxq6B4R-72" style="edgeStyle=orthogonalEdgeStyle;rounded=0;orthogonalLoop=1;jettySize=auto;html=1;exitX=0;exitY=0.5;exitDx=0;exitDy=0;entryX=1;entryY=1;entryDx=0;entryDy=0;" edge="1" parent="1" source="twBmOA31EewbAZxq6B4R-70" target="twBmOA31EewbAZxq6B4R-11">
          <mxGeometry relative="1" as="geometry" />
        </mxCell>
        <mxCell id="twBmOA31EewbAZxq6B4R-70" value="&lt;div&gt;Shares&lt;/div&gt;" style="rounded=1;arcSize=10;whiteSpace=wrap;html=1;align=center;fillColor=#fff2cc;strokeColor=#d6b656;" vertex="1" parent="1">
          <mxGeometry x="420" y="1120" width="100" height="40" as="geometry" />
        </mxCell>
        <mxCell id="twBmOA31EewbAZxq6B4R-71" style="edgeStyle=orthogonalEdgeStyle;rounded=0;orthogonalLoop=1;jettySize=auto;html=1;exitX=1;exitY=0.5;exitDx=0;exitDy=0;entryX=0.136;entryY=1.056;entryDx=0;entryDy=0;entryPerimeter=0;" edge="1" parent="1" source="twBmOA31EewbAZxq6B4R-70" target="twBmOA31EewbAZxq6B4R-16">
          <mxGeometry relative="1" as="geometry" />
        </mxCell>
        <mxCell id="twBmOA31EewbAZxq6B4R-73" value="&lt;div&gt;0,N&lt;/div&gt;&lt;div&gt;&lt;br&gt;&lt;/div&gt;" style="text;strokeColor=none;fillColor=none;spacingLeft=4;spacingRight=4;overflow=hidden;rotatable=0;points=[[0,0.5],[1,0.5]];portConstraint=eastwest;fontSize=12;whiteSpace=wrap;html=1;" vertex="1" parent="1">
          <mxGeometry x="600" y="1080" width="40" height="30" as="geometry" />
        </mxCell>
        <mxCell id="twBmOA31EewbAZxq6B4R-74" value="&lt;div&gt;0,N&lt;/div&gt;&lt;div&gt;&lt;br&gt;&lt;/div&gt;" style="text;strokeColor=none;fillColor=none;spacingLeft=4;spacingRight=4;overflow=hidden;rotatable=0;points=[[0,0.5],[1,0.5]];portConstraint=eastwest;fontSize=12;whiteSpace=wrap;html=1;" vertex="1" parent="1">
          <mxGeometry x="300" y="1060" width="40" height="30" as="geometry" />
        </mxCell>
        <mxCell id="twBmOA31EewbAZxq6B4R-75" value="Group" style="swimlane;childLayout=stackLayout;horizontal=1;startSize=50;horizontalStack=0;rounded=1;fontSize=14;fontStyle=0;strokeWidth=2;resizeParent=0;resizeLast=1;shadow=0;dashed=0;align=center;arcSize=4;whiteSpace=wrap;html=1;fillColor=#d5e8d4;strokeColor=#82b366;" vertex="1" parent="1">
          <mxGeometry x="-150" y="950" width="90" height="120" as="geometry" />
        </mxCell>
        <mxCell id="twBmOA31EewbAZxq6B4R-76" value="&lt;div&gt;&lt;u&gt;IdGroup&lt;/u&gt;&lt;/div&gt;&lt;div&gt;&lt;div&gt;Intrest&lt;/div&gt;&lt;/div&gt;&lt;div&gt;NameGrp&lt;/div&gt;&lt;div&gt;&lt;br&gt;&lt;/div&gt;&lt;div&gt;&lt;br&gt;&lt;/div&gt;" style="align=left;strokeColor=none;fillColor=none;spacingLeft=4;fontSize=12;verticalAlign=top;resizable=0;rotatable=0;part=1;html=1;" vertex="1" parent="twBmOA31EewbAZxq6B4R-75">
          <mxGeometry y="50" width="90" height="70" as="geometry" />
        </mxCell>
        <mxCell id="twBmOA31EewbAZxq6B4R-77" style="edgeStyle=orthogonalEdgeStyle;rounded=0;orthogonalLoop=1;jettySize=auto;html=1;exitX=1;exitY=1;exitDx=0;exitDy=0;entryX=1;entryY=1;entryDx=0;entryDy=0;" edge="1" parent="twBmOA31EewbAZxq6B4R-75" source="twBmOA31EewbAZxq6B4R-75" target="twBmOA31EewbAZxq6B4R-76">
          <mxGeometry relative="1" as="geometry" />
        </mxCell>
        <mxCell id="twBmOA31EewbAZxq6B4R-79" style="edgeStyle=orthogonalEdgeStyle;rounded=0;orthogonalLoop=1;jettySize=auto;html=1;exitX=0;exitY=0.25;exitDx=0;exitDy=0;entryX=1;entryY=0.25;entryDx=0;entryDy=0;" edge="1" parent="1" source="twBmOA31EewbAZxq6B4R-78" target="twBmOA31EewbAZxq6B4R-75">
          <mxGeometry relative="1" as="geometry" />
        </mxCell>
        <mxCell id="twBmOA31EewbAZxq6B4R-78" value="&lt;div&gt;Joins&lt;/div&gt;" style="rounded=1;arcSize=10;whiteSpace=wrap;html=1;align=center;fillColor=#fff2cc;strokeColor=#d6b656;" vertex="1" parent="1">
          <mxGeometry x="10" y="970" width="100" height="40" as="geometry" />
        </mxCell>
        <mxCell id="twBmOA31EewbAZxq6B4R-80" style="edgeStyle=orthogonalEdgeStyle;rounded=0;orthogonalLoop=1;jettySize=auto;html=1;exitX=1;exitY=0.25;exitDx=0;exitDy=0;entryX=0;entryY=0.307;entryDx=0;entryDy=0;entryPerimeter=0;" edge="1" parent="1" source="twBmOA31EewbAZxq6B4R-78" target="twBmOA31EewbAZxq6B4R-10">
          <mxGeometry relative="1" as="geometry" />
        </mxCell>
        <mxCell id="twBmOA31EewbAZxq6B4R-81" value="&lt;div&gt;0,N&lt;/div&gt;&lt;div&gt;&lt;br&gt;&lt;/div&gt;" style="text;strokeColor=none;fillColor=none;spacingLeft=4;spacingRight=4;overflow=hidden;rotatable=0;points=[[0,0.5],[1,0.5]];portConstraint=eastwest;fontSize=12;whiteSpace=wrap;html=1;" vertex="1" parent="1">
          <mxGeometry x="150" y="950" width="40" height="30" as="geometry" />
        </mxCell>
        <mxCell id="twBmOA31EewbAZxq6B4R-82" value="&lt;div&gt;0,N&lt;/div&gt;&lt;div&gt;&lt;br&gt;&lt;/div&gt;" style="text;strokeColor=none;fillColor=none;spacingLeft=4;spacingRight=4;overflow=hidden;rotatable=0;points=[[0,0.5],[1,0.5]];portConstraint=eastwest;fontSize=12;whiteSpace=wrap;html=1;" vertex="1" parent="1">
          <mxGeometry x="-60" y="950" width="40" height="30" as="geometry" />
        </mxCell>
        <mxCell id="twBmOA31EewbAZxq6B4R-83" value="&lt;div&gt;Relates&lt;/div&gt;" style="rounded=1;arcSize=10;whiteSpace=wrap;html=1;align=center;fillColor=#fff2cc;strokeColor=#d6b656;" vertex="1" parent="1">
          <mxGeometry x="270" y="1240" width="100" height="40" as="geometry" />
        </mxCell>
        <mxCell id="twBmOA31EewbAZxq6B4R-84" style="edgeStyle=orthogonalEdgeStyle;rounded=0;orthogonalLoop=1;jettySize=auto;html=1;exitX=0;exitY=0.25;exitDx=0;exitDy=0;entryX=0.885;entryY=1.036;entryDx=0;entryDy=0;entryPerimeter=0;" edge="1" parent="1" source="twBmOA31EewbAZxq6B4R-83" target="twBmOA31EewbAZxq6B4R-76">
          <mxGeometry relative="1" as="geometry" />
        </mxCell>
        <mxCell id="twBmOA31EewbAZxq6B4R-85" style="edgeStyle=orthogonalEdgeStyle;rounded=0;orthogonalLoop=1;jettySize=auto;html=1;exitX=1;exitY=0.25;exitDx=0;exitDy=0;entryX=0.473;entryY=1.047;entryDx=0;entryDy=0;entryPerimeter=0;" edge="1" parent="1" source="twBmOA31EewbAZxq6B4R-83" target="twBmOA31EewbAZxq6B4R-16">
          <mxGeometry relative="1" as="geometry" />
        </mxCell>
        <mxCell id="twBmOA31EewbAZxq6B4R-86" value="0,1" style="text;strokeColor=none;fillColor=none;spacingLeft=4;spacingRight=4;overflow=hidden;rotatable=0;points=[[0,0.5],[1,0.5]];portConstraint=eastwest;fontSize=12;whiteSpace=wrap;html=1;" vertex="1" parent="1">
          <mxGeometry x="680" y="1080" width="40" height="30" as="geometry" />
        </mxCell>
        <mxCell id="twBmOA31EewbAZxq6B4R-87" value="&lt;div&gt;0,N&lt;/div&gt;" style="text;strokeColor=none;fillColor=none;spacingLeft=4;spacingRight=4;overflow=hidden;rotatable=0;points=[[0,0.5],[1,0.5]];portConstraint=eastwest;fontSize=12;whiteSpace=wrap;html=1;" vertex="1" parent="1">
          <mxGeometry x="-110" y="1070" width="40" height="30" as="geometry" />
        </mxCell>
        <mxCell id="twBmOA31EewbAZxq6B4R-92" style="edgeStyle=orthogonalEdgeStyle;rounded=0;orthogonalLoop=1;jettySize=auto;html=1;exitX=1;exitY=0.75;exitDx=0;exitDy=0;entryX=0.5;entryY=0;entryDx=0;entryDy=0;" edge="1" parent="1" source="twBmOA31EewbAZxq6B4R-90" target="twBmOA31EewbAZxq6B4R-15">
          <mxGeometry relative="1" as="geometry" />
        </mxCell>
        <mxCell id="twBmOA31EewbAZxq6B4R-90" value="Views" style="rounded=1;arcSize=10;whiteSpace=wrap;html=1;align=center;fillColor=#fff2cc;strokeColor=#d6b656;" vertex="1" parent="1">
          <mxGeometry x="420" y="885" width="100" height="40" as="geometry" />
        </mxCell>
        <mxCell id="twBmOA31EewbAZxq6B4R-96" style="edgeStyle=orthogonalEdgeStyle;rounded=0;orthogonalLoop=1;jettySize=auto;html=1;exitX=0;exitY=0.75;exitDx=0;exitDy=0;entryX=1.008;entryY=0.04;entryDx=0;entryDy=0;entryPerimeter=0;" edge="1" parent="1" source="twBmOA31EewbAZxq6B4R-90" target="twBmOA31EewbAZxq6B4R-10">
          <mxGeometry relative="1" as="geometry" />
        </mxCell>
        <mxCell id="twBmOA31EewbAZxq6B4R-97" value="&lt;div&gt;0,N&lt;/div&gt;&lt;div&gt;&lt;br&gt;&lt;/div&gt;" style="text;strokeColor=none;fillColor=none;spacingLeft=4;spacingRight=4;overflow=hidden;rotatable=0;points=[[0,0.5],[1,0.5]];portConstraint=eastwest;fontSize=12;whiteSpace=wrap;html=1;" vertex="1" parent="1">
          <mxGeometry x="300" y="920" width="40" height="30" as="geometry" />
        </mxCell>
        <mxCell id="twBmOA31EewbAZxq6B4R-98" value="&lt;div&gt;0,N&lt;/div&gt;&lt;div&gt;&lt;br&gt;&lt;/div&gt;" style="text;strokeColor=none;fillColor=none;spacingLeft=4;spacingRight=4;overflow=hidden;rotatable=0;points=[[0,0.5],[1,0.5]];portConstraint=eastwest;fontSize=12;whiteSpace=wrap;html=1;" vertex="1" parent="1">
          <mxGeometry x="680" y="925" width="40" height="30" as="geometry" />
        </mxCell>
        <mxCell id="twBmOA31EewbAZxq6B4R-104" style="edgeStyle=orthogonalEdgeStyle;rounded=0;orthogonalLoop=1;jettySize=auto;html=1;exitX=0.25;exitY=1;exitDx=0;exitDy=0;entryX=0.292;entryY=-0.017;entryDx=0;entryDy=0;entryPerimeter=0;" edge="1" parent="1" source="twBmOA31EewbAZxq6B4R-37" target="twBmOA31EewbAZxq6B4R-10">
          <mxGeometry relative="1" as="geometry" />
        </mxCell>
        <mxCell id="twBmOA31EewbAZxq6B4R-115" value="User" style="swimlane;childLayout=stackLayout;horizontal=1;startSize=50;horizontalStack=0;rounded=1;fontSize=14;fontStyle=0;strokeWidth=2;resizeParent=0;resizeLast=1;shadow=0;dashed=0;align=center;arcSize=4;whiteSpace=wrap;html=1;fillColor=#d5e8d4;strokeColor=#82b366;" vertex="1" parent="1">
          <mxGeometry x="1735" y="1090" width="120" height="130" as="geometry" />
        </mxCell>
        <mxCell id="twBmOA31EewbAZxq6B4R-116" value="&lt;div&gt;&lt;u&gt;IdU&lt;/u&gt;&lt;/div&gt;&lt;div&gt;Name&lt;/div&gt;&lt;div&gt;Surname&lt;/div&gt;&lt;div&gt;Birth date&lt;/div&gt;" style="align=left;strokeColor=none;fillColor=none;spacingLeft=4;fontSize=12;verticalAlign=top;resizable=0;rotatable=0;part=1;html=1;" vertex="1" parent="twBmOA31EewbAZxq6B4R-115">
          <mxGeometry y="50" width="120" height="80" as="geometry" />
        </mxCell>
        <mxCell id="twBmOA31EewbAZxq6B4R-117" style="edgeStyle=orthogonalEdgeStyle;rounded=0;orthogonalLoop=1;jettySize=auto;html=1;exitX=1;exitY=1;exitDx=0;exitDy=0;entryX=1;entryY=1;entryDx=0;entryDy=0;" edge="1" parent="twBmOA31EewbAZxq6B4R-115" source="twBmOA31EewbAZxq6B4R-115" target="twBmOA31EewbAZxq6B4R-116">
          <mxGeometry relative="1" as="geometry" />
        </mxCell>
        <mxCell id="twBmOA31EewbAZxq6B4R-118" value="Post" style="swimlane;childLayout=stackLayout;horizontal=1;startSize=50;horizontalStack=0;rounded=1;fontSize=14;fontStyle=0;strokeWidth=2;resizeParent=0;resizeLast=1;shadow=0;dashed=0;align=center;arcSize=4;whiteSpace=wrap;html=1;fillColor=#d5e8d4;strokeColor=#82b366;" vertex="1" parent="1">
          <mxGeometry x="2175" y="1100" width="120" height="130" as="geometry" />
        </mxCell>
        <mxCell id="twBmOA31EewbAZxq6B4R-119" value="&lt;div&gt;&lt;u&gt;IdPost&lt;/u&gt;&lt;/div&gt;&lt;div&gt;Content&lt;/div&gt;&lt;div&gt;Date&lt;/div&gt;&lt;div&gt;&lt;br&gt;&lt;/div&gt;" style="align=left;strokeColor=none;fillColor=none;spacingLeft=4;fontSize=12;verticalAlign=top;resizable=0;rotatable=0;part=1;html=1;" vertex="1" parent="twBmOA31EewbAZxq6B4R-118">
          <mxGeometry y="50" width="120" height="80" as="geometry" />
        </mxCell>
        <mxCell id="twBmOA31EewbAZxq6B4R-120" style="edgeStyle=orthogonalEdgeStyle;rounded=0;orthogonalLoop=1;jettySize=auto;html=1;exitX=1;exitY=1;exitDx=0;exitDy=0;entryX=1;entryY=1;entryDx=0;entryDy=0;" edge="1" parent="twBmOA31EewbAZxq6B4R-118" source="twBmOA31EewbAZxq6B4R-118" target="twBmOA31EewbAZxq6B4R-119">
          <mxGeometry relative="1" as="geometry" />
        </mxCell>
        <mxCell id="twBmOA31EewbAZxq6B4R-276" style="edgeStyle=orthogonalEdgeStyle;rounded=0;orthogonalLoop=1;jettySize=auto;html=1;exitX=0;exitY=0.5;exitDx=0;exitDy=0;entryX=1;entryY=0.75;entryDx=0;entryDy=0;" edge="1" parent="1" source="twBmOA31EewbAZxq6B4R-123" target="twBmOA31EewbAZxq6B4R-116">
          <mxGeometry relative="1" as="geometry" />
        </mxCell>
        <mxCell id="twBmOA31EewbAZxq6B4R-123" value="&lt;div&gt;Publishes&lt;/div&gt;" style="rounded=1;arcSize=10;whiteSpace=wrap;html=1;align=center;fillColor=#fff2cc;strokeColor=#d6b656;" vertex="1" parent="1">
          <mxGeometry x="1980" y="1180" width="100" height="40" as="geometry" />
        </mxCell>
        <mxCell id="twBmOA31EewbAZxq6B4R-124" value="&lt;div&gt;1,1&lt;/div&gt;&lt;div&gt;&lt;br&gt;&lt;/div&gt;" style="text;strokeColor=none;fillColor=none;spacingLeft=4;spacingRight=4;overflow=hidden;rotatable=0;points=[[0,0.5],[1,0.5]];portConstraint=eastwest;fontSize=12;whiteSpace=wrap;html=1;" vertex="1" parent="1">
          <mxGeometry x="2150" y="1180" width="40" height="30" as="geometry" />
        </mxCell>
        <mxCell id="twBmOA31EewbAZxq6B4R-125" value="&lt;div&gt;0,N&lt;/div&gt;&lt;div&gt;&lt;br&gt;&lt;/div&gt;" style="text;strokeColor=none;fillColor=none;spacingLeft=4;spacingRight=4;overflow=hidden;rotatable=0;points=[[0,0.5],[1,0.5]];portConstraint=eastwest;fontSize=12;whiteSpace=wrap;html=1;" vertex="1" parent="1">
          <mxGeometry x="1855" y="1170" width="40" height="30" as="geometry" />
        </mxCell>
        <mxCell id="twBmOA31EewbAZxq6B4R-127" value="&lt;div&gt;Follows&lt;/div&gt;" style="rounded=1;arcSize=10;whiteSpace=wrap;html=1;align=center;fillColor=#fff2cc;strokeColor=#d6b656;" vertex="1" parent="1">
          <mxGeometry x="1745" y="980" width="100" height="40" as="geometry" />
        </mxCell>
        <mxCell id="twBmOA31EewbAZxq6B4R-129" style="edgeStyle=orthogonalEdgeStyle;rounded=0;orthogonalLoop=1;jettySize=auto;html=1;exitX=0.75;exitY=1;exitDx=0;exitDy=0;entryX=0.706;entryY=-0.017;entryDx=0;entryDy=0;entryPerimeter=0;" edge="1" parent="1" source="twBmOA31EewbAZxq6B4R-127" target="twBmOA31EewbAZxq6B4R-115">
          <mxGeometry relative="1" as="geometry" />
        </mxCell>
        <mxCell id="twBmOA31EewbAZxq6B4R-130" value="&lt;div&gt;0,N&lt;/div&gt;&lt;div&gt;&lt;br&gt;&lt;/div&gt;" style="text;strokeColor=none;fillColor=none;spacingLeft=4;spacingRight=4;overflow=hidden;rotatable=0;points=[[0,0.5],[1,0.5]];portConstraint=eastwest;fontSize=12;whiteSpace=wrap;html=1;" vertex="1" parent="1">
          <mxGeometry x="1815" y="1060" width="40" height="30" as="geometry" />
        </mxCell>
        <mxCell id="twBmOA31EewbAZxq6B4R-131" value="&lt;div&gt;0,N&lt;/div&gt;&lt;div&gt;&lt;br&gt;&lt;/div&gt;" style="text;strokeColor=none;fillColor=none;spacingLeft=4;spacingRight=4;overflow=hidden;rotatable=0;points=[[0,0.5],[1,0.5]];portConstraint=eastwest;fontSize=12;whiteSpace=wrap;html=1;" vertex="1" parent="1">
          <mxGeometry x="1735" y="1065" width="40" height="30" as="geometry" />
        </mxCell>
        <mxCell id="twBmOA31EewbAZxq6B4R-149" value="Group" style="swimlane;childLayout=stackLayout;horizontal=1;startSize=50;horizontalStack=0;rounded=1;fontSize=14;fontStyle=0;strokeWidth=2;resizeParent=0;resizeLast=1;shadow=0;dashed=0;align=center;arcSize=4;whiteSpace=wrap;html=1;fillColor=#d5e8d4;strokeColor=#82b366;" vertex="1" parent="1">
          <mxGeometry x="1405" y="1100" width="90" height="120" as="geometry" />
        </mxCell>
        <mxCell id="twBmOA31EewbAZxq6B4R-150" value="&lt;div&gt;&lt;u&gt;IdGroup&lt;/u&gt;&lt;/div&gt;&lt;div&gt;&lt;div&gt;Intrest&lt;/div&gt;&lt;/div&gt;&lt;div&gt;NameGrp&lt;/div&gt;&lt;div&gt;&lt;br&gt;&lt;/div&gt;&lt;div&gt;&lt;br&gt;&lt;/div&gt;" style="align=left;strokeColor=none;fillColor=none;spacingLeft=4;fontSize=12;verticalAlign=top;resizable=0;rotatable=0;part=1;html=1;" vertex="1" parent="twBmOA31EewbAZxq6B4R-149">
          <mxGeometry y="50" width="90" height="70" as="geometry" />
        </mxCell>
        <mxCell id="twBmOA31EewbAZxq6B4R-151" style="edgeStyle=orthogonalEdgeStyle;rounded=0;orthogonalLoop=1;jettySize=auto;html=1;exitX=1;exitY=1;exitDx=0;exitDy=0;entryX=1;entryY=1;entryDx=0;entryDy=0;" edge="1" parent="twBmOA31EewbAZxq6B4R-149" source="twBmOA31EewbAZxq6B4R-149" target="twBmOA31EewbAZxq6B4R-150">
          <mxGeometry relative="1" as="geometry" />
        </mxCell>
        <mxCell id="twBmOA31EewbAZxq6B4R-152" style="edgeStyle=orthogonalEdgeStyle;rounded=0;orthogonalLoop=1;jettySize=auto;html=1;exitX=0;exitY=0.25;exitDx=0;exitDy=0;entryX=1;entryY=0.25;entryDx=0;entryDy=0;" edge="1" parent="1" source="twBmOA31EewbAZxq6B4R-153" target="twBmOA31EewbAZxq6B4R-149">
          <mxGeometry relative="1" as="geometry" />
        </mxCell>
        <mxCell id="twBmOA31EewbAZxq6B4R-153" value="&lt;div&gt;Joins&lt;/div&gt;" style="rounded=1;arcSize=10;whiteSpace=wrap;html=1;align=center;fillColor=#fff2cc;strokeColor=#d6b656;" vertex="1" parent="1">
          <mxGeometry x="1565" y="1120" width="100" height="40" as="geometry" />
        </mxCell>
        <mxCell id="twBmOA31EewbAZxq6B4R-154" style="edgeStyle=orthogonalEdgeStyle;rounded=0;orthogonalLoop=1;jettySize=auto;html=1;exitX=1;exitY=0.25;exitDx=0;exitDy=0;entryX=0;entryY=0.307;entryDx=0;entryDy=0;entryPerimeter=0;" edge="1" parent="1" source="twBmOA31EewbAZxq6B4R-153" target="twBmOA31EewbAZxq6B4R-115">
          <mxGeometry relative="1" as="geometry" />
        </mxCell>
        <mxCell id="twBmOA31EewbAZxq6B4R-155" value="&lt;div&gt;0,N&lt;/div&gt;&lt;div&gt;&lt;br&gt;&lt;/div&gt;" style="text;strokeColor=none;fillColor=none;spacingLeft=4;spacingRight=4;overflow=hidden;rotatable=0;points=[[0,0.5],[1,0.5]];portConstraint=eastwest;fontSize=12;whiteSpace=wrap;html=1;" vertex="1" parent="1">
          <mxGeometry x="1705" y="1100" width="40" height="30" as="geometry" />
        </mxCell>
        <mxCell id="twBmOA31EewbAZxq6B4R-156" value="&lt;div&gt;0,N&lt;/div&gt;&lt;div&gt;&lt;br&gt;&lt;/div&gt;" style="text;strokeColor=none;fillColor=none;spacingLeft=4;spacingRight=4;overflow=hidden;rotatable=0;points=[[0,0.5],[1,0.5]];portConstraint=eastwest;fontSize=12;whiteSpace=wrap;html=1;" vertex="1" parent="1">
          <mxGeometry x="1495" y="1100" width="40" height="30" as="geometry" />
        </mxCell>
        <mxCell id="twBmOA31EewbAZxq6B4R-157" value="&lt;div&gt;Relates&lt;/div&gt;" style="rounded=1;arcSize=10;whiteSpace=wrap;html=1;align=center;fillColor=#fff2cc;strokeColor=#d6b656;" vertex="1" parent="1">
          <mxGeometry x="1825" y="1390" width="100" height="40" as="geometry" />
        </mxCell>
        <mxCell id="twBmOA31EewbAZxq6B4R-158" style="edgeStyle=orthogonalEdgeStyle;rounded=0;orthogonalLoop=1;jettySize=auto;html=1;exitX=0;exitY=0.25;exitDx=0;exitDy=0;entryX=0.885;entryY=1.036;entryDx=0;entryDy=0;entryPerimeter=0;" edge="1" parent="1" source="twBmOA31EewbAZxq6B4R-157" target="twBmOA31EewbAZxq6B4R-150">
          <mxGeometry relative="1" as="geometry" />
        </mxCell>
        <mxCell id="twBmOA31EewbAZxq6B4R-159" style="edgeStyle=orthogonalEdgeStyle;rounded=0;orthogonalLoop=1;jettySize=auto;html=1;exitX=1;exitY=0.25;exitDx=0;exitDy=0;entryX=0.473;entryY=1.047;entryDx=0;entryDy=0;entryPerimeter=0;" edge="1" parent="1" source="twBmOA31EewbAZxq6B4R-157" target="twBmOA31EewbAZxq6B4R-119">
          <mxGeometry relative="1" as="geometry" />
        </mxCell>
        <mxCell id="twBmOA31EewbAZxq6B4R-160" value="0,1" style="text;strokeColor=none;fillColor=none;spacingLeft=4;spacingRight=4;overflow=hidden;rotatable=0;points=[[0,0.5],[1,0.5]];portConstraint=eastwest;fontSize=12;whiteSpace=wrap;html=1;" vertex="1" parent="1">
          <mxGeometry x="2235" y="1230" width="40" height="30" as="geometry" />
        </mxCell>
        <mxCell id="twBmOA31EewbAZxq6B4R-161" value="&lt;div&gt;0,N&lt;/div&gt;" style="text;strokeColor=none;fillColor=none;spacingLeft=4;spacingRight=4;overflow=hidden;rotatable=0;points=[[0,0.5],[1,0.5]];portConstraint=eastwest;fontSize=12;whiteSpace=wrap;html=1;" vertex="1" parent="1">
          <mxGeometry x="1445" y="1220" width="40" height="30" as="geometry" />
        </mxCell>
        <mxCell id="twBmOA31EewbAZxq6B4R-168" style="edgeStyle=orthogonalEdgeStyle;rounded=0;orthogonalLoop=1;jettySize=auto;html=1;exitX=0.25;exitY=1;exitDx=0;exitDy=0;entryX=0.292;entryY=-0.017;entryDx=0;entryDy=0;entryPerimeter=0;" edge="1" parent="1" source="twBmOA31EewbAZxq6B4R-127" target="twBmOA31EewbAZxq6B4R-115">
          <mxGeometry relative="1" as="geometry" />
        </mxCell>
        <mxCell id="twBmOA31EewbAZxq6B4R-277" style="edgeStyle=orthogonalEdgeStyle;rounded=0;orthogonalLoop=1;jettySize=auto;html=1;exitX=1;exitY=0.5;exitDx=0;exitDy=0;entryX=-0.022;entryY=0.629;entryDx=0;entryDy=0;entryPerimeter=0;" edge="1" parent="1" source="twBmOA31EewbAZxq6B4R-123" target="twBmOA31EewbAZxq6B4R-119">
          <mxGeometry relative="1" as="geometry" />
        </mxCell>
        <mxCell id="twBmOA31EewbAZxq6B4R-278" value="Creates" style="rounded=1;arcSize=10;whiteSpace=wrap;html=1;align=center;fillColor=#fff2cc;strokeColor=#d6b656;" vertex="1" parent="1">
          <mxGeometry x="1940" y="1025" width="100" height="40" as="geometry" />
        </mxCell>
        <mxCell id="twBmOA31EewbAZxq6B4R-279" style="edgeStyle=orthogonalEdgeStyle;rounded=0;orthogonalLoop=1;jettySize=auto;html=1;exitX=0.25;exitY=1;exitDx=0;exitDy=0;entryX=0.994;entryY=0.141;entryDx=0;entryDy=0;entryPerimeter=0;" edge="1" parent="1" source="twBmOA31EewbAZxq6B4R-278" target="twBmOA31EewbAZxq6B4R-115">
          <mxGeometry relative="1" as="geometry" />
        </mxCell>
        <mxCell id="twBmOA31EewbAZxq6B4R-280" value="Interaction" style="swimlane;childLayout=stackLayout;horizontal=1;startSize=50;horizontalStack=0;rounded=1;fontSize=14;fontStyle=0;strokeWidth=2;resizeParent=0;resizeLast=1;shadow=0;dashed=0;align=center;arcSize=4;whiteSpace=wrap;html=1;fillColor=#d5e8d4;strokeColor=#82b366;" vertex="1" parent="1">
          <mxGeometry x="2320" y="810" width="120" height="130" as="geometry" />
        </mxCell>
        <mxCell id="twBmOA31EewbAZxq6B4R-281" value="&lt;div&gt;&lt;u&gt;IdUser&lt;/u&gt;&lt;/div&gt;&lt;div&gt;IdPost&lt;/div&gt;&lt;div&gt;IdAction&lt;br&gt;&lt;/div&gt;" style="align=left;strokeColor=none;fillColor=none;spacingLeft=4;fontSize=12;verticalAlign=top;resizable=0;rotatable=0;part=1;html=1;" vertex="1" parent="twBmOA31EewbAZxq6B4R-280">
          <mxGeometry y="50" width="120" height="80" as="geometry" />
        </mxCell>
        <mxCell id="twBmOA31EewbAZxq6B4R-282" style="edgeStyle=orthogonalEdgeStyle;rounded=0;orthogonalLoop=1;jettySize=auto;html=1;exitX=1;exitY=1;exitDx=0;exitDy=0;entryX=1;entryY=1;entryDx=0;entryDy=0;" edge="1" parent="twBmOA31EewbAZxq6B4R-280" source="twBmOA31EewbAZxq6B4R-280" target="twBmOA31EewbAZxq6B4R-281">
          <mxGeometry relative="1" as="geometry" />
        </mxCell>
        <mxCell id="twBmOA31EewbAZxq6B4R-283" style="edgeStyle=orthogonalEdgeStyle;rounded=0;orthogonalLoop=1;jettySize=auto;html=1;exitX=0.75;exitY=0;exitDx=0;exitDy=0;entryX=-0.008;entryY=0.188;entryDx=0;entryDy=0;entryPerimeter=0;" edge="1" parent="1" source="twBmOA31EewbAZxq6B4R-278" target="twBmOA31EewbAZxq6B4R-281">
          <mxGeometry relative="1" as="geometry" />
        </mxCell>
        <mxCell id="twBmOA31EewbAZxq6B4R-284" value="&lt;div&gt;0,N&lt;/div&gt;&lt;div&gt;&lt;br&gt;&lt;/div&gt;" style="text;strokeColor=none;fillColor=none;spacingLeft=4;spacingRight=4;overflow=hidden;rotatable=0;points=[[0,0.5],[1,0.5]];portConstraint=eastwest;fontSize=12;whiteSpace=wrap;html=1;" vertex="1" parent="1">
          <mxGeometry x="1855" y="1080" width="40" height="30" as="geometry" />
        </mxCell>
        <mxCell id="twBmOA31EewbAZxq6B4R-285" value="1,1" style="text;strokeColor=none;fillColor=none;spacingLeft=4;spacingRight=4;overflow=hidden;rotatable=0;points=[[0,0.5],[1,0.5]];portConstraint=eastwest;fontSize=12;whiteSpace=wrap;html=1;" vertex="1" parent="1">
          <mxGeometry x="2280" y="850" width="40" height="30" as="geometry" />
        </mxCell>
        <mxCell id="twBmOA31EewbAZxq6B4R-290" style="edgeStyle=orthogonalEdgeStyle;rounded=0;orthogonalLoop=1;jettySize=auto;html=1;exitX=0.75;exitY=0;exitDx=0;exitDy=0;entryX=0;entryY=0.75;entryDx=0;entryDy=0;" edge="1" parent="1" source="twBmOA31EewbAZxq6B4R-286" target="twBmOA31EewbAZxq6B4R-281">
          <mxGeometry relative="1" as="geometry" />
        </mxCell>
        <mxCell id="twBmOA31EewbAZxq6B4R-286" value="Likes" style="rounded=1;arcSize=10;whiteSpace=wrap;html=1;align=center;fillColor=#fff2cc;strokeColor=#d6b656;" vertex="1" parent="1">
          <mxGeometry x="2195" y="980" width="100" height="40" as="geometry" />
        </mxCell>
        <mxCell id="twBmOA31EewbAZxq6B4R-287" value="Shares" style="rounded=1;arcSize=10;whiteSpace=wrap;html=1;align=center;fillColor=#fff2cc;strokeColor=#d6b656;" vertex="1" parent="1">
          <mxGeometry x="2340" y="980" width="100" height="40" as="geometry" />
        </mxCell>
        <mxCell id="twBmOA31EewbAZxq6B4R-294" style="edgeStyle=orthogonalEdgeStyle;rounded=0;orthogonalLoop=1;jettySize=auto;html=1;exitX=0.25;exitY=0;exitDx=0;exitDy=0;entryX=1;entryY=0.75;entryDx=0;entryDy=0;" edge="1" parent="1" source="twBmOA31EewbAZxq6B4R-288" target="twBmOA31EewbAZxq6B4R-281">
          <mxGeometry relative="1" as="geometry" />
        </mxCell>
        <mxCell id="twBmOA31EewbAZxq6B4R-295" style="edgeStyle=orthogonalEdgeStyle;rounded=0;orthogonalLoop=1;jettySize=auto;html=1;exitX=0.25;exitY=1;exitDx=0;exitDy=0;entryX=1;entryY=0.5;entryDx=0;entryDy=0;" edge="1" parent="1" source="twBmOA31EewbAZxq6B4R-288" target="twBmOA31EewbAZxq6B4R-118">
          <mxGeometry relative="1" as="geometry" />
        </mxCell>
        <mxCell id="twBmOA31EewbAZxq6B4R-288" value="Comments" style="rounded=1;arcSize=10;whiteSpace=wrap;html=1;align=center;fillColor=#fff2cc;strokeColor=#d6b656;" vertex="1" parent="1">
          <mxGeometry x="2480" y="980" width="100" height="40" as="geometry" />
        </mxCell>
        <mxCell id="twBmOA31EewbAZxq6B4R-291" style="edgeStyle=orthogonalEdgeStyle;rounded=0;orthogonalLoop=1;jettySize=auto;html=1;exitX=0.25;exitY=1;exitDx=0;exitDy=0;entryX=0.372;entryY=0.018;entryDx=0;entryDy=0;entryPerimeter=0;" edge="1" parent="1" source="twBmOA31EewbAZxq6B4R-286" target="twBmOA31EewbAZxq6B4R-118">
          <mxGeometry relative="1" as="geometry" />
        </mxCell>
        <mxCell id="twBmOA31EewbAZxq6B4R-292" style="edgeStyle=orthogonalEdgeStyle;rounded=0;orthogonalLoop=1;jettySize=auto;html=1;exitX=0.25;exitY=0;exitDx=0;exitDy=0;entryX=0.375;entryY=1.046;entryDx=0;entryDy=0;entryPerimeter=0;" edge="1" parent="1" source="twBmOA31EewbAZxq6B4R-287" target="twBmOA31EewbAZxq6B4R-281">
          <mxGeometry relative="1" as="geometry" />
        </mxCell>
        <mxCell id="twBmOA31EewbAZxq6B4R-293" style="edgeStyle=orthogonalEdgeStyle;rounded=0;orthogonalLoop=1;jettySize=auto;html=1;exitX=0.25;exitY=1;exitDx=0;exitDy=0;entryX=0.889;entryY=-0.003;entryDx=0;entryDy=0;entryPerimeter=0;" edge="1" parent="1" source="twBmOA31EewbAZxq6B4R-287" target="twBmOA31EewbAZxq6B4R-118">
          <mxGeometry relative="1" as="geometry" />
        </mxCell>
        <mxCell id="twBmOA31EewbAZxq6B4R-296" value="0,1" style="text;strokeColor=none;fillColor=none;spacingLeft=4;spacingRight=4;overflow=hidden;rotatable=0;points=[[0,0.5],[1,0.5]];portConstraint=eastwest;fontSize=12;whiteSpace=wrap;html=1;" vertex="1" parent="1">
          <mxGeometry x="2295" y="890" width="40" height="30" as="geometry" />
        </mxCell>
        <mxCell id="twBmOA31EewbAZxq6B4R-297" value="0,N" style="text;strokeColor=none;fillColor=none;spacingLeft=4;spacingRight=4;overflow=hidden;rotatable=0;points=[[0,0.5],[1,0.5]];portConstraint=eastwest;fontSize=12;whiteSpace=wrap;html=1;" vertex="1" parent="1">
          <mxGeometry x="2190" y="1070" width="40" height="30" as="geometry" />
        </mxCell>
        <mxCell id="twBmOA31EewbAZxq6B4R-298" value="0,N" style="text;strokeColor=none;fillColor=none;spacingLeft=4;spacingRight=4;overflow=hidden;rotatable=0;points=[[0,0.5],[1,0.5]];portConstraint=eastwest;fontSize=12;whiteSpace=wrap;html=1;" vertex="1" parent="1">
          <mxGeometry x="2370" y="940" width="40" height="30" as="geometry" />
        </mxCell>
        <mxCell id="twBmOA31EewbAZxq6B4R-299" value="0,N" style="text;strokeColor=none;fillColor=none;spacingLeft=4;spacingRight=4;overflow=hidden;rotatable=0;points=[[0,0.5],[1,0.5]];portConstraint=eastwest;fontSize=12;whiteSpace=wrap;html=1;" vertex="1" parent="1">
          <mxGeometry x="2275" y="1070" width="40" height="30" as="geometry" />
        </mxCell>
        <mxCell id="twBmOA31EewbAZxq6B4R-300" value="0,N" style="text;strokeColor=none;fillColor=none;spacingLeft=4;spacingRight=4;overflow=hidden;rotatable=0;points=[[0,0.5],[1,0.5]];portConstraint=eastwest;fontSize=12;whiteSpace=wrap;html=1;" vertex="1" parent="1">
          <mxGeometry x="2440" y="890" width="40" height="30" as="geometry" />
        </mxCell>
        <mxCell id="twBmOA31EewbAZxq6B4R-301" value="0,N" style="text;strokeColor=none;fillColor=none;spacingLeft=4;spacingRight=4;overflow=hidden;rotatable=0;points=[[0,0.5],[1,0.5]];portConstraint=eastwest;fontSize=12;whiteSpace=wrap;html=1;" vertex="1" parent="1">
          <mxGeometry x="2295" y="1170" width="40" height="30" as="geometry" />
        </mxCell>
        <mxCell id="twBmOA31EewbAZxq6B4R-316" value="User" style="swimlane;childLayout=stackLayout;horizontal=1;startSize=50;horizontalStack=0;rounded=1;fontSize=14;fontStyle=0;strokeWidth=2;resizeParent=0;resizeLast=1;shadow=0;dashed=0;align=center;arcSize=4;whiteSpace=wrap;html=1;fillColor=#e1d5e7;strokeColor=#9673a6;" vertex="1" parent="1">
          <mxGeometry x="-21" y="2014" width="91" height="166" as="geometry" />
        </mxCell>
        <mxCell id="twBmOA31EewbAZxq6B4R-317" value="&lt;div&gt;&lt;u&gt;IdUser&lt;/u&gt;&lt;/div&gt;&lt;div&gt;Name&lt;/div&gt;&lt;div&gt;Surname&lt;/div&gt;&lt;div&gt;Birth date&lt;/div&gt;&lt;div&gt;NumFollowers&lt;/div&gt;&lt;div&gt;NumFriends&lt;br&gt;&lt;/div&gt;" style="align=left;strokeColor=none;fillColor=none;spacingLeft=4;fontSize=12;verticalAlign=top;resizable=0;rotatable=0;part=1;html=1;" vertex="1" parent="twBmOA31EewbAZxq6B4R-316">
          <mxGeometry y="50" width="91" height="116" as="geometry" />
        </mxCell>
        <mxCell id="twBmOA31EewbAZxq6B4R-318" style="edgeStyle=orthogonalEdgeStyle;rounded=0;orthogonalLoop=1;jettySize=auto;html=1;exitX=1;exitY=1;exitDx=0;exitDy=0;entryX=1;entryY=1;entryDx=0;entryDy=0;" edge="1" parent="twBmOA31EewbAZxq6B4R-316" source="twBmOA31EewbAZxq6B4R-316" target="twBmOA31EewbAZxq6B4R-317">
          <mxGeometry relative="1" as="geometry" />
        </mxCell>
        <mxCell id="twBmOA31EewbAZxq6B4R-319" value="Post" style="swimlane;childLayout=stackLayout;horizontal=1;startSize=50;horizontalStack=0;rounded=1;fontSize=14;fontStyle=0;strokeWidth=2;resizeParent=0;resizeLast=1;shadow=0;dashed=0;align=center;arcSize=4;whiteSpace=wrap;html=1;fillColor=#e1d5e7;strokeColor=#9673a6;" vertex="1" parent="1">
          <mxGeometry x="460" y="2063" width="120" height="147" as="geometry" />
        </mxCell>
        <mxCell id="twBmOA31EewbAZxq6B4R-320" value="&lt;div&gt;&lt;u&gt;IdPost&lt;/u&gt;&lt;/div&gt;&lt;div&gt;Content&lt;/div&gt;&lt;div&gt;Date&lt;/div&gt;&lt;div&gt;Visibility&lt;/div&gt;&lt;div&gt;#IdUser&lt;br&gt;&lt;/div&gt;&lt;div&gt;#IdGroup&lt;br&gt;&lt;/div&gt;" style="align=left;strokeColor=none;fillColor=none;spacingLeft=4;fontSize=12;verticalAlign=top;resizable=0;rotatable=0;part=1;html=1;" vertex="1" parent="twBmOA31EewbAZxq6B4R-319">
          <mxGeometry y="50" width="120" height="97" as="geometry" />
        </mxCell>
        <mxCell id="twBmOA31EewbAZxq6B4R-321" style="edgeStyle=orthogonalEdgeStyle;rounded=0;orthogonalLoop=1;jettySize=auto;html=1;exitX=1;exitY=1;exitDx=0;exitDy=0;entryX=1;entryY=1;entryDx=0;entryDy=0;" edge="1" parent="twBmOA31EewbAZxq6B4R-319" source="twBmOA31EewbAZxq6B4R-319" target="twBmOA31EewbAZxq6B4R-320">
          <mxGeometry relative="1" as="geometry" />
        </mxCell>
        <mxCell id="twBmOA31EewbAZxq6B4R-346" value="Group" style="swimlane;childLayout=stackLayout;horizontal=1;startSize=50;horizontalStack=0;rounded=1;fontSize=14;fontStyle=0;strokeWidth=2;resizeParent=0;resizeLast=1;shadow=0;dashed=0;align=center;arcSize=4;whiteSpace=wrap;html=1;fillColor=#e1d5e7;strokeColor=#9673a6;" vertex="1" parent="1">
          <mxGeometry x="-340" y="2014" width="90" height="120" as="geometry" />
        </mxCell>
        <mxCell id="twBmOA31EewbAZxq6B4R-347" value="&lt;div&gt;&lt;u&gt;IdGroup&lt;/u&gt;&lt;/div&gt;&lt;div&gt;&lt;div&gt;Intrest&lt;/div&gt;&lt;/div&gt;&lt;div&gt;NameGrp&lt;/div&gt;&lt;div&gt;&lt;br&gt;&lt;/div&gt;&lt;div&gt;&lt;br&gt;&lt;/div&gt;" style="align=left;strokeColor=none;fillColor=none;spacingLeft=4;fontSize=12;verticalAlign=top;resizable=0;rotatable=0;part=1;html=1;" vertex="1" parent="twBmOA31EewbAZxq6B4R-346">
          <mxGeometry y="50" width="90" height="70" as="geometry" />
        </mxCell>
        <mxCell id="twBmOA31EewbAZxq6B4R-348" style="edgeStyle=orthogonalEdgeStyle;rounded=0;orthogonalLoop=1;jettySize=auto;html=1;exitX=1;exitY=1;exitDx=0;exitDy=0;entryX=1;entryY=1;entryDx=0;entryDy=0;" edge="1" parent="twBmOA31EewbAZxq6B4R-346" source="twBmOA31EewbAZxq6B4R-346" target="twBmOA31EewbAZxq6B4R-347">
          <mxGeometry relative="1" as="geometry" />
        </mxCell>
        <mxCell id="twBmOA31EewbAZxq6B4R-370" value="Likes" style="swimlane;childLayout=stackLayout;horizontal=1;startSize=50;horizontalStack=0;rounded=1;fontSize=14;fontStyle=0;strokeWidth=2;resizeParent=0;resizeLast=1;shadow=0;dashed=0;align=center;arcSize=4;whiteSpace=wrap;html=1;fillColor=#e1d5e7;strokeColor=#9673a6;" vertex="1" parent="1">
          <mxGeometry x="229" y="1773" width="66" height="88" as="geometry" />
        </mxCell>
        <mxCell id="twBmOA31EewbAZxq6B4R-371" value="&lt;div&gt;&lt;u&gt;#IdPost&lt;/u&gt;&lt;/div&gt;&lt;div&gt;&lt;u&gt;#IdUser&lt;br&gt;&lt;/u&gt;&lt;/div&gt;" style="align=left;strokeColor=none;fillColor=none;spacingLeft=4;fontSize=12;verticalAlign=top;resizable=0;rotatable=0;part=1;html=1;" vertex="1" parent="twBmOA31EewbAZxq6B4R-370">
          <mxGeometry y="50" width="66" height="38" as="geometry" />
        </mxCell>
        <mxCell id="twBmOA31EewbAZxq6B4R-372" style="edgeStyle=orthogonalEdgeStyle;rounded=0;orthogonalLoop=1;jettySize=auto;html=1;exitX=1;exitY=1;exitDx=0;exitDy=0;entryX=1;entryY=1;entryDx=0;entryDy=0;" edge="1" parent="twBmOA31EewbAZxq6B4R-370" source="twBmOA31EewbAZxq6B4R-370" target="twBmOA31EewbAZxq6B4R-371">
          <mxGeometry relative="1" as="geometry" />
        </mxCell>
        <mxCell id="twBmOA31EewbAZxq6B4R-379" value="" style="curved=1;endArrow=classic;html=1;rounded=0;exitX=0;exitY=0.75;exitDx=0;exitDy=0;entryX=1.015;entryY=0.158;entryDx=0;entryDy=0;entryPerimeter=0;" edge="1" parent="1" source="twBmOA31EewbAZxq6B4R-320" target="twBmOA31EewbAZxq6B4R-317">
          <mxGeometry width="50" height="50" relative="1" as="geometry">
            <mxPoint x="199" y="2129" as="sourcePoint" />
            <mxPoint x="249" y="2079" as="targetPoint" />
            <Array as="points">
              <mxPoint x="168" y="2351" />
            </Array>
          </mxGeometry>
        </mxCell>
        <mxCell id="twBmOA31EewbAZxq6B4R-380" value="" style="curved=1;endArrow=classic;html=1;rounded=0;exitX=1;exitY=0.5;exitDx=0;exitDy=0;entryX=-0.007;entryY=0.124;entryDx=0;entryDy=0;entryPerimeter=0;" edge="1" parent="1" source="twBmOA31EewbAZxq6B4R-371" target="twBmOA31EewbAZxq6B4R-320">
          <mxGeometry width="50" height="50" relative="1" as="geometry">
            <mxPoint x="360.0039999999997" y="2009.568" as="sourcePoint" />
            <mxPoint x="459.3799999999999" y="2127" as="targetPoint" />
            <Array as="points">
              <mxPoint x="451" y="1959" />
              <mxPoint x="422" y="2042" />
            </Array>
          </mxGeometry>
        </mxCell>
        <mxCell id="twBmOA31EewbAZxq6B4R-381" value="" style="curved=1;endArrow=classic;html=1;rounded=0;exitX=0;exitY=0.75;exitDx=0;exitDy=0;entryX=1.002;entryY=0.138;entryDx=0;entryDy=0;entryPerimeter=0;" edge="1" parent="1" source="twBmOA31EewbAZxq6B4R-371" target="twBmOA31EewbAZxq6B4R-317">
          <mxGeometry width="50" height="50" relative="1" as="geometry">
            <mxPoint x="167" y="2026" as="sourcePoint" />
            <mxPoint x="60" y="2080" as="targetPoint" />
            <Array as="points">
              <mxPoint x="218" y="1846" />
              <mxPoint x="208" y="1846" />
              <mxPoint x="184" y="1846" />
              <mxPoint x="141" y="1864" />
              <mxPoint x="120" y="2080" />
            </Array>
          </mxGeometry>
        </mxCell>
        <mxCell id="twBmOA31EewbAZxq6B4R-382" value="Views" style="swimlane;childLayout=stackLayout;horizontal=1;startSize=50;horizontalStack=0;rounded=1;fontSize=14;fontStyle=0;strokeWidth=2;resizeParent=0;resizeLast=1;shadow=0;dashed=0;align=center;arcSize=4;whiteSpace=wrap;html=1;fillColor=#e1d5e7;strokeColor=#9673a6;" vertex="1" parent="1">
          <mxGeometry x="229" y="1882" width="66" height="88" as="geometry" />
        </mxCell>
        <mxCell id="twBmOA31EewbAZxq6B4R-383" value="&lt;div&gt;&lt;u&gt;#IdPost&lt;/u&gt;&lt;/div&gt;&lt;div&gt;&lt;u&gt;#IdUser&lt;br&gt;&lt;/u&gt;&lt;/div&gt;" style="align=left;strokeColor=none;fillColor=none;spacingLeft=4;fontSize=12;verticalAlign=top;resizable=0;rotatable=0;part=1;html=1;" vertex="1" parent="twBmOA31EewbAZxq6B4R-382">
          <mxGeometry y="50" width="66" height="38" as="geometry" />
        </mxCell>
        <mxCell id="twBmOA31EewbAZxq6B4R-384" style="edgeStyle=orthogonalEdgeStyle;rounded=0;orthogonalLoop=1;jettySize=auto;html=1;exitX=1;exitY=1;exitDx=0;exitDy=0;entryX=1;entryY=1;entryDx=0;entryDy=0;" edge="1" parent="twBmOA31EewbAZxq6B4R-382" source="twBmOA31EewbAZxq6B4R-382" target="twBmOA31EewbAZxq6B4R-383">
          <mxGeometry relative="1" as="geometry" />
        </mxCell>
        <mxCell id="twBmOA31EewbAZxq6B4R-385" value="Shares" style="swimlane;childLayout=stackLayout;horizontal=1;startSize=50;horizontalStack=0;rounded=1;fontSize=14;fontStyle=0;strokeWidth=2;resizeParent=0;resizeLast=1;shadow=0;dashed=0;align=center;arcSize=4;whiteSpace=wrap;html=1;fillColor=#e1d5e7;strokeColor=#9673a6;" vertex="1" parent="1">
          <mxGeometry x="231" y="2000" width="66" height="88" as="geometry" />
        </mxCell>
        <mxCell id="twBmOA31EewbAZxq6B4R-386" value="&lt;div&gt;&lt;u&gt;#IdPost&lt;/u&gt;&lt;/div&gt;&lt;div&gt;&lt;u&gt;#IdUser&lt;br&gt;&lt;/u&gt;&lt;/div&gt;" style="align=left;strokeColor=none;fillColor=none;spacingLeft=4;fontSize=12;verticalAlign=top;resizable=0;rotatable=0;part=1;html=1;" vertex="1" parent="twBmOA31EewbAZxq6B4R-385">
          <mxGeometry y="50" width="66" height="38" as="geometry" />
        </mxCell>
        <mxCell id="twBmOA31EewbAZxq6B4R-387" style="edgeStyle=orthogonalEdgeStyle;rounded=0;orthogonalLoop=1;jettySize=auto;html=1;exitX=1;exitY=1;exitDx=0;exitDy=0;entryX=1;entryY=1;entryDx=0;entryDy=0;" edge="1" parent="twBmOA31EewbAZxq6B4R-385" source="twBmOA31EewbAZxq6B4R-385" target="twBmOA31EewbAZxq6B4R-386">
          <mxGeometry relative="1" as="geometry" />
        </mxCell>
        <mxCell id="twBmOA31EewbAZxq6B4R-388" value="Comments" style="swimlane;childLayout=stackLayout;horizontal=1;startSize=50;horizontalStack=0;rounded=1;fontSize=14;fontStyle=0;strokeWidth=2;resizeParent=0;resizeLast=1;shadow=0;dashed=0;align=center;arcSize=4;whiteSpace=wrap;html=1;fillColor=#e1d5e7;strokeColor=#9673a6;" vertex="1" parent="1">
          <mxGeometry x="231" y="2118" width="66" height="103" as="geometry" />
        </mxCell>
        <mxCell id="twBmOA31EewbAZxq6B4R-389" value="&lt;div&gt;&lt;u&gt;#IdPost&lt;/u&gt;&lt;/div&gt;&lt;div&gt;&lt;u&gt;#IdUser&lt;br&gt;&lt;/u&gt;&lt;/div&gt;&lt;div&gt;Content&lt;br&gt;&lt;/div&gt;" style="align=left;strokeColor=none;fillColor=none;spacingLeft=4;fontSize=12;verticalAlign=top;resizable=0;rotatable=0;part=1;html=1;" vertex="1" parent="twBmOA31EewbAZxq6B4R-388">
          <mxGeometry y="50" width="66" height="53" as="geometry" />
        </mxCell>
        <mxCell id="twBmOA31EewbAZxq6B4R-390" style="edgeStyle=orthogonalEdgeStyle;rounded=0;orthogonalLoop=1;jettySize=auto;html=1;exitX=1;exitY=1;exitDx=0;exitDy=0;entryX=1;entryY=1;entryDx=0;entryDy=0;" edge="1" parent="twBmOA31EewbAZxq6B4R-388" source="twBmOA31EewbAZxq6B4R-388" target="twBmOA31EewbAZxq6B4R-389">
          <mxGeometry relative="1" as="geometry" />
        </mxCell>
        <mxCell id="twBmOA31EewbAZxq6B4R-391" value="" style="curved=1;endArrow=classic;html=1;rounded=0;exitX=0;exitY=0.75;exitDx=0;exitDy=0;entryX=0.989;entryY=0.134;entryDx=0;entryDy=0;entryPerimeter=0;" edge="1" parent="1" source="twBmOA31EewbAZxq6B4R-383" target="twBmOA31EewbAZxq6B4R-317">
          <mxGeometry width="50" height="50" relative="1" as="geometry">
            <mxPoint x="213" y="2342" as="sourcePoint" />
            <mxPoint x="263" y="2292" as="targetPoint" />
            <Array as="points">
              <mxPoint x="156" y="2041" />
              <mxPoint x="143" y="2051" />
              <mxPoint x="111" y="2091" />
            </Array>
          </mxGeometry>
        </mxCell>
        <mxCell id="twBmOA31EewbAZxq6B4R-392" value="" style="curved=1;endArrow=classic;html=1;rounded=0;entryX=-0.001;entryY=0.138;entryDx=0;entryDy=0;entryPerimeter=0;exitX=1;exitY=0.75;exitDx=0;exitDy=0;" edge="1" parent="1" source="twBmOA31EewbAZxq6B4R-382" target="twBmOA31EewbAZxq6B4R-320">
          <mxGeometry width="50" height="50" relative="1" as="geometry">
            <mxPoint x="230" y="2294" as="sourcePoint" />
            <mxPoint x="457.84000000000015" y="2125.5600000000004" as="targetPoint" />
            <Array as="points">
              <mxPoint x="306" y="1959" />
              <mxPoint x="312" y="1974" />
              <mxPoint x="324" y="1998" />
              <mxPoint x="340" y="2047" />
              <mxPoint x="352" y="2070" />
              <mxPoint x="362" y="2093" />
            </Array>
          </mxGeometry>
        </mxCell>
        <mxCell id="twBmOA31EewbAZxq6B4R-394" value="" style="curved=1;endArrow=classic;html=1;rounded=0;exitX=1.013;exitY=0.356;exitDx=0;exitDy=0;exitPerimeter=0;entryX=0;entryY=0.137;entryDx=0;entryDy=0;entryPerimeter=0;" edge="1" parent="1" source="twBmOA31EewbAZxq6B4R-386" target="twBmOA31EewbAZxq6B4R-320">
          <mxGeometry width="50" height="50" relative="1" as="geometry">
            <mxPoint x="140" y="2136" as="sourcePoint" />
            <mxPoint x="190" y="2086" as="targetPoint" />
            <Array as="points">
              <mxPoint x="317" y="2105" />
              <mxPoint x="381" y="2132" />
            </Array>
          </mxGeometry>
        </mxCell>
        <mxCell id="twBmOA31EewbAZxq6B4R-395" value="" style="curved=1;endArrow=classic;html=1;rounded=0;exitX=0;exitY=0.75;exitDx=0;exitDy=0;entryX=0.981;entryY=0.152;entryDx=0;entryDy=0;entryPerimeter=0;" edge="1" parent="1" source="twBmOA31EewbAZxq6B4R-386" target="twBmOA31EewbAZxq6B4R-317">
          <mxGeometry width="50" height="50" relative="1" as="geometry">
            <mxPoint x="205" y="2072" as="sourcePoint" />
            <mxPoint x="255" y="2022" as="targetPoint" />
            <Array as="points">
              <mxPoint x="199" y="2101" />
              <mxPoint x="150" y="2105" />
            </Array>
          </mxGeometry>
        </mxCell>
        <mxCell id="twBmOA31EewbAZxq6B4R-396" value="" style="curved=1;endArrow=classic;html=1;rounded=0;exitX=0.987;exitY=0.375;exitDx=0;exitDy=0;exitPerimeter=0;entryX=0;entryY=0.15;entryDx=0;entryDy=0;entryPerimeter=0;" edge="1" parent="1" source="twBmOA31EewbAZxq6B4R-389" target="twBmOA31EewbAZxq6B4R-320">
          <mxGeometry width="50" height="50" relative="1" as="geometry">
            <mxPoint x="205" y="2104" as="sourcePoint" />
            <mxPoint x="255" y="2054" as="targetPoint" />
            <Array as="points">
              <mxPoint x="421" y="2156" />
            </Array>
          </mxGeometry>
        </mxCell>
        <mxCell id="twBmOA31EewbAZxq6B4R-397" value="" style="curved=1;endArrow=classic;html=1;rounded=0;exitX=0;exitY=0.75;exitDx=0;exitDy=0;entryX=0.972;entryY=0.134;entryDx=0;entryDy=0;entryPerimeter=0;" edge="1" parent="1" source="twBmOA31EewbAZxq6B4R-389" target="twBmOA31EewbAZxq6B4R-317">
          <mxGeometry width="50" height="50" relative="1" as="geometry">
            <mxPoint x="205" y="2104" as="sourcePoint" />
            <mxPoint x="255" y="2054" as="targetPoint" />
            <Array as="points">
              <mxPoint x="196" y="2148" />
              <mxPoint x="128" y="2125" />
              <mxPoint x="108" y="2113" />
            </Array>
          </mxGeometry>
        </mxCell>
        <mxCell id="twBmOA31EewbAZxq6B4R-398" value="Joins" style="swimlane;childLayout=stackLayout;horizontal=1;startSize=50;horizontalStack=0;rounded=1;fontSize=14;fontStyle=0;strokeWidth=2;resizeParent=0;resizeLast=1;shadow=0;dashed=0;align=center;arcSize=4;whiteSpace=wrap;html=1;fillColor=#e1d5e7;strokeColor=#9673a6;" vertex="1" parent="1">
          <mxGeometry x="-168" y="2014" width="90" height="120" as="geometry" />
        </mxCell>
        <mxCell id="twBmOA31EewbAZxq6B4R-399" value="&lt;div&gt;&lt;u&gt;#IdGroup&lt;/u&gt;&lt;/div&gt;&lt;div&gt;&lt;u&gt;#IdUser&lt;br&gt;&lt;/u&gt;&lt;/div&gt;" style="align=left;strokeColor=none;fillColor=none;spacingLeft=4;fontSize=12;verticalAlign=top;resizable=0;rotatable=0;part=1;html=1;" vertex="1" parent="twBmOA31EewbAZxq6B4R-398">
          <mxGeometry y="50" width="90" height="70" as="geometry" />
        </mxCell>
        <mxCell id="twBmOA31EewbAZxq6B4R-400" style="edgeStyle=orthogonalEdgeStyle;rounded=0;orthogonalLoop=1;jettySize=auto;html=1;exitX=1;exitY=1;exitDx=0;exitDy=0;entryX=1;entryY=1;entryDx=0;entryDy=0;" edge="1" parent="twBmOA31EewbAZxq6B4R-398" source="twBmOA31EewbAZxq6B4R-398" target="twBmOA31EewbAZxq6B4R-399">
          <mxGeometry relative="1" as="geometry" />
        </mxCell>
        <mxCell id="twBmOA31EewbAZxq6B4R-401" value="Comments" style="swimlane;childLayout=stackLayout;horizontal=1;startSize=27;horizontalStack=0;rounded=1;fontSize=14;fontStyle=0;strokeWidth=2;resizeParent=0;resizeLast=1;shadow=0;dashed=0;align=center;arcSize=4;whiteSpace=wrap;html=1;fillColor=#fff2cc;strokeColor=#d6b656;" vertex="1" parent="1">
          <mxGeometry x="427.5" y="1038" width="85" height="52" as="geometry" />
        </mxCell>
        <mxCell id="twBmOA31EewbAZxq6B4R-402" value="Content" style="align=left;strokeColor=none;fillColor=none;spacingLeft=4;fontSize=12;verticalAlign=top;resizable=0;rotatable=0;part=1;html=1;" vertex="1" parent="twBmOA31EewbAZxq6B4R-401">
          <mxGeometry y="27" width="85" height="25" as="geometry" />
        </mxCell>
        <mxCell id="twBmOA31EewbAZxq6B4R-403" style="edgeStyle=orthogonalEdgeStyle;rounded=0;orthogonalLoop=1;jettySize=auto;html=1;exitX=1;exitY=1;exitDx=0;exitDy=0;entryX=1;entryY=1;entryDx=0;entryDy=0;" edge="1" parent="twBmOA31EewbAZxq6B4R-401" source="twBmOA31EewbAZxq6B4R-401" target="twBmOA31EewbAZxq6B4R-402">
          <mxGeometry relative="1" as="geometry" />
        </mxCell>
        <mxCell id="twBmOA31EewbAZxq6B4R-404" value="" style="curved=1;endArrow=classic;html=1;rounded=0;exitX=1;exitY=0.5;exitDx=0;exitDy=0;entryX=0.024;entryY=0.122;entryDx=0;entryDy=0;entryPerimeter=0;" edge="1" parent="1" source="twBmOA31EewbAZxq6B4R-399" target="twBmOA31EewbAZxq6B4R-317">
          <mxGeometry width="50" height="50" relative="1" as="geometry">
            <mxPoint x="-78" y="2083" as="sourcePoint" />
            <mxPoint x="-39" y="2000" as="targetPoint" />
            <Array as="points">
              <mxPoint x="-56" y="2078" />
            </Array>
          </mxGeometry>
        </mxCell>
        <mxCell id="twBmOA31EewbAZxq6B4R-405" value="" style="curved=1;endArrow=classic;html=1;rounded=0;exitX=0;exitY=0.25;exitDx=0;exitDy=0;entryX=1;entryY=0.25;entryDx=0;entryDy=0;" edge="1" parent="1" source="twBmOA31EewbAZxq6B4R-399" target="twBmOA31EewbAZxq6B4R-347">
          <mxGeometry width="50" height="50" relative="1" as="geometry">
            <mxPoint x="-227" y="2075" as="sourcePoint" />
            <mxPoint x="-177" y="2025" as="targetPoint" />
            <Array as="points">
              <mxPoint x="-177" y="2075" />
              <mxPoint x="-222" y="2068" />
            </Array>
          </mxGeometry>
        </mxCell>
        <mxCell id="twBmOA31EewbAZxq6B4R-412" value="" style="curved=1;endArrow=classic;html=1;rounded=0;exitX=0.016;exitY=0.92;exitDx=0;exitDy=0;exitPerimeter=0;entryX=1;entryY=0.25;entryDx=0;entryDy=0;" edge="1" parent="1" source="twBmOA31EewbAZxq6B4R-320" target="twBmOA31EewbAZxq6B4R-347">
          <mxGeometry width="50" height="50" relative="1" as="geometry">
            <mxPoint x="110" y="2290" as="sourcePoint" />
            <mxPoint x="-200" y="2180" as="targetPoint" />
            <Array as="points">
              <mxPoint x="180" y="2350" />
              <mxPoint x="-80" y="2280" />
            </Array>
          </mxGeometry>
        </mxCell>
        <mxCell id="twBmOA31EewbAZxq6B4R-413" value="Follows" style="swimlane;childLayout=stackLayout;horizontal=1;startSize=50;horizontalStack=0;rounded=1;fontSize=14;fontStyle=0;strokeWidth=2;resizeParent=0;resizeLast=1;shadow=0;dashed=0;align=center;arcSize=4;whiteSpace=wrap;html=1;fillColor=#e1d5e7;strokeColor=#9673a6;" vertex="1" parent="1">
          <mxGeometry x="-40" y="1830" width="100" height="120" as="geometry" />
        </mxCell>
        <mxCell id="twBmOA31EewbAZxq6B4R-414" value="&lt;div&gt;&lt;u&gt;#IdUserFollower&lt;/u&gt;&lt;/div&gt;&lt;div&gt;&lt;u&gt;#IdUserFollowed&lt;br&gt;&lt;/u&gt;&lt;/div&gt;" style="align=left;strokeColor=none;fillColor=none;spacingLeft=4;fontSize=12;verticalAlign=top;resizable=0;rotatable=0;part=1;html=1;" vertex="1" parent="twBmOA31EewbAZxq6B4R-413">
          <mxGeometry y="50" width="100" height="70" as="geometry" />
        </mxCell>
        <mxCell id="twBmOA31EewbAZxq6B4R-415" style="edgeStyle=orthogonalEdgeStyle;rounded=0;orthogonalLoop=1;jettySize=auto;html=1;exitX=1;exitY=1;exitDx=0;exitDy=0;entryX=1;entryY=1;entryDx=0;entryDy=0;" edge="1" parent="twBmOA31EewbAZxq6B4R-413" source="twBmOA31EewbAZxq6B4R-413" target="twBmOA31EewbAZxq6B4R-414">
          <mxGeometry relative="1" as="geometry" />
        </mxCell>
        <mxCell id="twBmOA31EewbAZxq6B4R-416" value="" style="curved=1;endArrow=classic;html=1;rounded=0;exitX=0;exitY=0.25;exitDx=0;exitDy=0;entryX=-0.007;entryY=0.116;entryDx=0;entryDy=0;entryPerimeter=0;" edge="1" parent="1" source="twBmOA31EewbAZxq6B4R-414" target="twBmOA31EewbAZxq6B4R-317">
          <mxGeometry width="50" height="50" relative="1" as="geometry">
            <mxPoint x="-115" y="1880" as="sourcePoint" />
            <mxPoint x="-65" y="1830" as="targetPoint" />
            <Array as="points">
              <mxPoint x="-70" y="1890" />
              <mxPoint x="-90" y="1970" />
            </Array>
          </mxGeometry>
        </mxCell>
        <mxCell id="twBmOA31EewbAZxq6B4R-417" value="" style="curved=1;endArrow=classic;html=1;rounded=0;exitX=-0.002;exitY=0.427;exitDx=0;exitDy=0;exitPerimeter=0;entryX=-0.015;entryY=0.128;entryDx=0;entryDy=0;entryPerimeter=0;" edge="1" parent="1" source="twBmOA31EewbAZxq6B4R-414" target="twBmOA31EewbAZxq6B4R-317">
          <mxGeometry width="50" height="50" relative="1" as="geometry">
            <mxPoint x="-180" y="1870" as="sourcePoint" />
            <mxPoint x="-130" y="1820" as="targetPoint" />
            <Array as="points">
              <mxPoint x="-130" y="1870" />
              <mxPoint x="-130" y="1950" />
            </Array>
          </mxGeometry>
        </mxCell>
      </root>
    </mxGraphModel>
  </diagram>
</mxfile>
